<svg style="opacity:.3;" width="204" height="247" viewBox="0 0 204 247" fill="none" xmlns="http://www.w3.org/2000/svg">
<path d="M149.958 11.0714C156.42 8.39371 165.678 2.57476 169.5 0C173.321 2.57476 182.58 8.39371 189.041 11.0714C197.118 14.4186 221.35 27.035 225.519 33.2143C229.948 32.6136 241.308 31.7725 251.313 33.2143C257.02 34.0367 261.533 35.0198 265.1 35.7971C269.351 36.7229 272.259 37.3565 274.242 37.0764C274.095 37.8023 274.031 40.5457 273.934 44.7027C273.868 47.5564 273.785 51.0765 273.65 55.0669C264.942 54.8453 252.188 54.6889 243.733 54.6113C235.403 54.4143 225.306 54.9779 218.484 57.6746C209.886 49.6928 203.632 46.8607 189.041 41.7111C177.369 37.5915 171.15 29.0089 169.5 25.2326C167.85 29.0089 161.631 37.5915 149.958 41.7111C135.368 46.8607 129.114 49.6928 120.516 57.6746C110.094 53.5549 92.0291 54.4133 84.2994 55.3572C84.9246 85.2245 88.3811 106.938 90.0314 114.062C98.1449 151.945 143.925 172.258 167.59 178.226C165.977 182.246 163.933 186.118 162.061 189.266L160.641 188.73C105.143 168.646 91.0736 156.03 77.5248 128.995C66.5217 107.04 65.4855 62.6696 65.0659 44.7027C64.9688 40.5457 64.9046 37.8023 64.7579 37.0764C66.7413 37.3565 69.649 36.7229 73.8997 35.7971C77.4672 35.0198 81.9801 34.0367 87.6863 33.2143C97.6915 31.7725 109.052 32.6136 113.481 33.2143C117.65 27.035 141.881 14.4186 149.958 11.0714Z" fill="white"/>
<path d="M235.732 161.406C247.828 152.379 254.716 142.482 261.475 128.995C265.844 120.278 268.641 108.028 270.453 95.2989C264.835 95.0609 258.113 94.9752 251.974 95.3195C250.893 104.288 249.735 110.751 248.968 114.062C245.574 129.911 235.586 142.685 223.383 152.62C227.741 155.642 232.089 158.718 235.732 161.406Z" fill="white"/>
<path d="M189.043 323.93C182.581 326.607 173.323 332.428 169.502 335C165.68 332.428 156.422 326.607 149.96 323.93C141.883 320.582 117.651 307.966 113.482 301.787C109.053 302.387 97.6932 303.228 87.6879 301.787C81.9814 300.964 77.4685 299.981 73.9013 299.204C69.6503 298.278 66.7426 297.644 64.7592 297.924C64.9062 297.199 64.9701 294.455 65.0672 290.298C65.1337 287.445 65.2162 283.924 65.3513 279.934C74.0596 280.155 86.8136 280.312 95.2686 280.39C103.598 280.587 113.695 280.023 120.518 277.326C129.116 285.308 135.369 288.14 149.96 293.29C161.633 297.409 167.851 305.992 169.502 309.768C171.151 305.992 177.37 297.409 189.043 293.29C203.634 288.14 209.887 285.308 218.485 277.326C228.908 281.446 246.972 280.588 254.702 279.644C254.077 249.776 250.62 228.063 248.97 220.939C240.856 183.056 195.076 162.743 171.411 156.775C173.025 152.755 175.068 148.882 176.941 145.735L178.36 146.271C233.858 166.355 247.928 178.971 261.477 206.006C272.48 227.961 273.516 272.331 273.936 290.298C274.033 294.455 274.097 297.199 274.244 297.924C272.26 297.644 269.352 298.278 265.102 299.204C261.534 299.981 257.021 300.964 251.315 301.787C241.31 303.228 229.949 302.387 225.52 301.787C221.351 307.966 197.12 320.582 189.043 323.93Z" fill="white"/>
<path d="M103.269 173.595C91.173 182.621 84.2845 192.52 77.5261 206.006C73.1572 214.723 70.3598 226.974 68.5482 239.702C74.166 239.94 80.8879 240.026 87.0266 239.681C88.1082 230.713 89.2654 224.25 90.0324 220.939C93.427 205.09 103.415 192.316 115.618 182.381C111.26 179.359 106.912 176.283 103.269 173.595Z" fill="white"/>
<path d="M327.797 148.184C330.507 154.569 336.397 163.719 339 167.495C336.397 171.271 330.507 180.42 327.797 186.806C324.41 194.787 311.643 218.732 305.39 222.852C305.998 227.229 306.849 238.455 305.39 248.342C304.557 253.981 303.563 258.441 302.776 261.966C301.839 266.167 301.198 269.04 301.481 271C300.747 270.855 297.971 270.791 293.764 270.695C290.876 270.63 287.314 270.548 283.276 270.415C283.5 261.81 283.659 249.206 283.737 240.851C283.937 232.62 283.366 222.642 280.637 215.9C288.714 207.403 291.581 201.224 296.792 186.806C300.96 175.271 309.645 169.126 313.467 167.495C309.645 165.864 300.96 159.719 296.792 148.184C291.581 133.765 288.714 127.586 280.637 119.089C284.806 108.79 283.938 90.9386 282.982 83.3002C252.758 83.9181 230.785 87.3341 223.576 88.9649C185.24 96.9823 164.685 142.222 158.645 165.607C154.577 164.013 150.658 161.994 147.473 160.143L148.016 158.741C168.339 103.898 181.106 89.9948 208.464 76.606C230.682 65.7329 275.582 64.7088 293.764 64.2939C297.971 64.198 300.747 64.1348 301.481 63.9895C301.198 65.9495 301.839 68.8229 302.776 73.0237C303.563 76.5487 304.557 81.0084 305.39 86.6475C306.849 96.5346 305.998 107.76 305.39 112.138C311.643 116.257 324.41 140.202 327.797 148.184Z" fill="white"/>
<path d="M175.665 232.945C184.8 244.898 194.817 251.705 208.464 258.384C217.285 262.701 229.682 265.465 242.563 267.255C242.804 261.704 242.89 255.061 242.542 248.995C233.466 247.926 226.926 246.783 223.576 246.025C207.537 242.67 194.61 232.8 184.557 220.742C181.499 225.048 178.386 229.345 175.665 232.945Z" fill="white"/>
<path d="M11.2038 186.817C8.49403 180.432 2.60553 171.282 0 167.506C2.60553 163.73 8.49403 154.581 11.2038 148.195C14.591 140.214 27.3581 116.269 33.6114 112.149C33.0034 107.772 32.1522 96.5459 33.6114 86.6588C34.4436 81.0197 35.4385 76.56 36.2247 73.035C37.1619 68.8342 37.8031 65.9608 37.5196 64.0008C38.2538 64.1461 41.0304 64.2093 45.237 64.3052C48.1249 64.3713 51.6871 64.4525 55.7251 64.586C55.5009 73.1915 55.3423 85.7952 55.2641 94.15C55.0644 102.381 55.635 112.359 58.3639 119.101C50.2868 127.597 47.4205 133.777 42.2094 148.195C38.0409 159.73 29.3556 165.875 25.5342 167.506C29.3556 169.137 38.0409 175.282 42.2094 186.817C47.4205 201.236 50.2868 207.415 58.3639 215.912C54.1951 226.211 55.0634 244.062 56.0189 251.701C86.2429 251.083 108.216 247.667 115.425 246.036C153.761 238.018 174.316 192.779 180.356 169.394C184.424 170.988 188.343 173.007 191.528 174.858L190.985 176.26C170.662 231.103 157.895 245.006 130.537 258.395C108.319 269.268 63.4187 270.292 45.237 270.707C41.0304 270.803 38.2538 270.866 37.5196 271.011C37.8031 269.051 37.1619 266.178 36.2247 261.977C35.4385 258.452 34.4436 253.992 33.6114 248.354C32.1522 238.466 33.0034 227.241 33.6114 222.863C27.358 218.744 14.591 194.799 11.2038 186.817Z" fill="white"/>
<path d="M163.336 102.056C154.201 90.1032 144.185 83.2963 130.537 76.6175C121.716 72.3005 109.319 69.5357 96.4379 67.7456C96.1971 73.297 96.1107 79.9396 96.4591 86.0058C105.535 87.0746 112.075 88.2184 115.425 88.9764C131.464 92.3305 144.391 102.201 154.444 114.259C157.502 109.953 160.615 105.656 163.336 102.056Z" fill="white"/>
</svg>
