<svg width="311" height="103" viewBox="0 0 311 103" fill="none" xmlns="http://www.w3.org/2000/svg">
<path d="M45.2795 3.383C47.2307 2.56479 50.0262 0.786745 51.1801 0C52.334 0.786745 55.1296 2.56479 57.0807 3.383C59.5196 4.40577 66.8364 8.26083 68.0952 10.149C69.4326 9.96544 72.8628 9.70844 75.8839 10.149C77.607 10.4003 78.9697 10.7007 80.0468 10.9382C81.3304 11.2211 82.2084 11.4147 82.8073 11.3291C82.7629 11.5509 82.7436 12.3892 82.7143 13.6594C82.6942 14.5314 82.6693 15.607 82.6285 16.8263C79.999 16.7586 76.1479 16.7108 73.5949 16.6871C71.0798 16.6269 68.0309 16.7991 65.9709 17.6231C63.3747 15.1842 61.4865 14.3188 57.0807 12.7453C53.5561 11.4865 51.6784 8.864 51.1801 7.7101C50.6819 8.864 48.8042 11.4865 45.2795 12.7453C40.8738 14.3188 38.9856 15.1842 36.3893 17.6231C33.2423 16.3643 27.7876 16.6266 25.4536 16.915C25.6424 26.0413 26.6861 32.6762 27.1844 34.8528C29.6343 46.4285 43.4578 52.6352 50.6034 54.4589C50.1163 55.6873 49.4993 56.8705 48.9338 57.8323L48.5052 57.6684C31.7475 51.5318 27.4991 47.6768 23.408 39.4159C20.0856 32.7073 19.7727 19.1494 19.646 13.6594C19.6167 12.3892 19.5973 11.5509 19.553 11.3291C20.1519 11.4147 21.0299 11.2211 22.3134 10.9382C23.3906 10.7007 24.7533 10.4003 26.4763 10.149C29.4974 9.70844 32.9276 9.96544 34.2651 10.149C35.5239 8.26083 42.8406 4.40577 45.2795 3.383Z" fill="url(#paint0_linear)"/>
<path d="M71.1792 49.3195C74.8315 46.5612 76.9115 43.5368 78.9522 39.4159C80.2714 36.7523 81.1161 33.009 81.6631 29.1196C79.9668 29.0469 77.9371 29.0207 76.0835 29.1259C75.7569 31.8663 75.4075 33.8411 75.1759 34.8528C74.1509 39.6958 71.1351 43.5991 67.4503 46.6347C68.7663 47.558 70.0792 48.498 71.1792 49.3195Z" fill="url(#paint1_linear)"/>
<path d="M57.081 98.9803C55.1299 99.7985 52.3344 101.577 51.1805 102.363C50.0266 101.577 47.231 99.7985 45.2799 98.9803C42.841 97.9575 35.5242 94.1025 34.2654 92.2143C32.928 92.3978 29.4978 92.6548 26.4767 92.2143C24.7536 91.963 23.3909 91.6626 22.3138 91.4251C21.0302 91.1422 20.1522 90.9486 19.5533 91.0341C19.5977 90.8124 19.617 89.9741 19.6463 88.7039C19.6664 87.8319 19.6913 86.7563 19.7321 85.537C22.3616 85.6046 26.2127 85.6525 28.7657 85.6762C31.2808 85.7364 34.3297 85.5642 36.3897 84.7402C38.9859 87.1791 40.8741 88.0445 45.2799 89.618C48.8045 90.8768 50.6822 93.4993 51.1805 94.6532C51.6787 93.4993 53.5564 90.8768 57.081 89.618C61.4868 88.0445 63.375 87.1791 65.9713 84.7402C69.1183 85.999 74.573 85.7367 76.907 85.4483C76.7182 76.322 75.6745 69.6871 75.1762 67.5105C72.7263 55.9348 58.9028 49.7281 51.7572 47.9043C52.2443 46.676 52.8613 45.4927 53.4268 44.531L53.8554 44.6948C70.6131 50.8315 74.8615 54.6865 78.9526 62.9473C82.275 69.656 82.5879 83.2138 82.7146 88.7039C82.7439 89.9741 82.7633 90.8124 82.8076 91.0341C82.2087 90.9486 81.3307 91.1422 80.0472 91.4251C78.97 91.6626 77.6073 91.963 75.8843 92.2143C72.8632 92.6548 69.4329 92.3978 68.0955 92.2143C66.8367 94.1025 59.52 97.9575 57.081 98.9803Z" fill="#184473"/>
<path d="M31.1814 53.0438C27.5291 55.802 25.4491 58.8265 23.4084 62.9473C22.0892 65.611 21.2445 69.3543 20.6975 73.2437C22.3938 73.3164 24.4235 73.3426 26.2771 73.2373C26.6037 70.4969 26.9531 68.5221 27.1847 67.5105C28.2097 62.6674 31.2255 58.7642 34.9103 55.7286C33.5943 54.8053 32.2814 53.8653 31.1814 53.0438Z" fill="#184473"/>
<path d="M98.9783 45.2793C99.7965 47.2304 101.575 50.026 102.361 51.1799C101.575 52.3338 99.7965 55.1294 98.9783 57.0805C97.9556 59.5194 94.1005 66.8361 92.2123 68.0949C92.3959 69.4324 92.6529 72.8626 92.2123 75.8837C91.961 77.6067 91.6606 78.9695 91.4232 80.0466C91.1402 81.3302 90.9466 82.2082 91.0322 82.807C90.8105 82.7627 89.9721 82.7433 88.7019 82.714C87.8299 82.6939 86.7543 82.6691 85.535 82.6282C85.6027 79.9988 85.6506 76.1476 85.6742 73.5946C85.7345 71.0796 85.5622 68.0307 84.7382 65.9707C87.1771 63.3744 88.0426 61.4863 89.6161 57.0805C90.8748 53.5559 93.4973 51.6782 94.6512 51.1799C93.4973 50.6816 90.8748 48.8039 89.6161 45.2793C88.0426 40.8735 87.1771 38.9853 84.7382 36.3891C85.997 33.2421 85.7348 27.7873 85.4463 25.4533C76.3201 25.6421 69.6852 26.6859 67.5085 27.1842C55.9328 29.634 49.7261 43.4575 47.9024 50.6031C46.674 50.116 45.4908 49.499 44.529 48.9335L44.6929 48.505C50.8295 31.7473 54.6846 27.4989 62.9454 23.4078C69.6541 20.0854 83.2119 19.7725 88.7019 19.6457C89.9721 19.6164 90.8105 19.5971 91.0322 19.5527C90.9466 20.1516 91.1402 21.0296 91.4232 22.3132C91.6606 23.3903 91.961 24.753 92.2123 26.4761C92.6529 29.4972 92.3959 32.9274 92.2123 34.2649C94.1005 35.5237 97.9556 42.8404 98.9783 45.2793Z" fill="#184473"/>
<path d="M53.0418 71.1789C55.8001 74.8313 58.8246 76.9112 62.9454 78.952C65.609 80.2711 69.3524 81.1158 73.2417 81.6628C73.3145 79.9666 73.3406 77.9369 73.2354 76.0833C70.495 75.7566 68.5202 75.4072 67.5085 75.1756C62.6655 74.1506 58.7623 71.1348 55.7266 67.4501C54.8033 68.766 53.8634 70.079 53.0418 71.1789Z" fill="#184473"/>
<path d="M3.38227 57.084C2.56406 55.1329 0.786013 52.3373 -0.000732422 51.1834C0.786013 50.0295 2.56406 47.2339 3.38227 45.2828C4.40504 42.8439 8.2601 35.5272 10.1483 34.2684C9.96471 32.9309 9.70771 29.5007 10.1483 26.4796C10.3996 24.7565 10.7 23.3938 10.9374 22.3167C11.2204 21.0331 11.414 20.1551 11.3284 19.5562C11.5501 19.6006 12.3885 19.6199 13.6587 19.6492C14.5307 19.6694 15.6063 19.6942 16.8256 19.735C16.7579 22.3645 16.71 26.2157 16.6864 28.7686C16.6261 31.2837 16.7984 34.3326 17.6224 36.3926C15.1835 38.9888 14.318 40.877 12.7445 45.2828C11.4858 48.8074 8.86327 50.6851 7.70937 51.1834C8.86327 51.6817 11.4858 53.5594 12.7445 57.084C14.318 61.4898 15.1835 63.3779 17.6224 65.9742C16.3636 69.1212 16.6258 74.5759 16.9143 76.91C26.0405 76.7211 32.6754 75.6774 34.8521 75.1791C46.4278 72.7292 52.6345 58.9058 54.4582 51.7602C55.6866 52.2472 56.8698 52.8643 57.8316 53.4297L57.6677 53.8583C51.5311 70.616 47.676 74.8644 39.4152 78.9555C32.7065 82.2779 19.1487 82.5908 13.6587 82.7175C12.3885 82.7469 11.5501 82.7662 11.3284 82.8105C11.414 82.2117 11.2204 81.3337 10.9374 80.0501C10.7 78.973 10.3996 77.6102 10.1483 75.8872C9.70771 72.8661 9.96471 69.4359 10.1483 68.0984C8.26009 66.8396 4.40504 59.5229 3.38227 57.084Z" fill="#184473"/>
<path d="M49.3188 31.1844C46.5605 27.532 43.536 25.4521 39.4152 23.4113C36.7516 22.0922 33.0082 21.2474 29.1188 20.7004C29.0461 22.3967 29.02 24.4264 29.1252 26.28C31.8656 26.6066 33.8404 26.9561 34.8521 27.1877C39.6951 28.2126 43.5983 31.2285 46.634 34.9132C47.5573 33.5973 48.4972 32.2843 49.3188 31.1844Z" fill="#184473"/>
<path d="M136.405 32.4416L130.634 23.6107L128.329 26.7667V32.4416H124.651V11.7088H128.329V21.6294L135.372 11.7088H139.559L133.067 20.7662L140.804 32.4416H136.405Z" fill="#184473"/>
<path d="M154.622 32.4416L153.109 28.2385H146.009L144.566 32.4416H140.478L148.739 11.4258H150.351L158.682 32.4416H154.622ZM149.545 17.7659L147.055 25.4222H152.034L149.545 17.7659Z" fill="#184473"/>
<path d="M159.898 32.4416V31.2529L168.54 14.978H160.04V11.7088H173.547V12.8976L164.877 29.1725H173.858V32.4416H159.898Z" fill="#184473"/>
<path d="M185.739 23.9362V32.4416H182.062V23.9362L175.075 11.7088H178.979L183.886 20.5539L188.809 11.7088H192.698L185.739 23.9362Z" fill="#184473"/>
<path d="M208.483 32.7247L198.427 19.6057V32.4558H194.891V11.7088H196.659L206.446 24.2193V11.7088H209.982V32.7247H208.483Z" fill="#184473"/>
<path d="M226.333 32.4416L224.819 28.2385H217.719L216.276 32.4416H212.189L220.449 11.4258H222.061L230.392 32.4416H226.333ZM221.255 17.7659L218.766 25.4222H223.744L221.255 17.7659Z" fill="#184473"/>
<path d="M138.852 41.7962L137.338 44.8389C136.518 44.0181 135.198 43.6077 133.378 43.6077C131.653 43.6077 130.238 44.3341 129.135 45.7871C128.032 47.2306 127.48 49.0609 127.48 51.2781C127.48 53.4953 127.989 55.2548 129.008 56.5568C130.035 57.8588 131.403 58.5098 133.109 58.5098C135.061 58.5098 136.589 57.8116 137.692 56.4153L139.403 59.3872C137.904 60.9817 135.707 61.7789 132.812 61.7789C129.918 61.7789 127.669 60.826 126.066 58.9202C124.463 57.0144 123.661 54.4151 123.661 51.1224C123.661 48.0561 124.548 45.4946 126.32 43.4378C128.102 41.3716 130.38 40.3385 133.152 40.3385C135.528 40.3385 137.428 40.8244 138.852 41.7962Z" fill="#184473"/>
<path d="M154.481 61.4251L152.968 57.222H145.867L144.425 61.4251H140.337L148.597 40.4093H150.21L158.54 61.4251H154.481ZM149.403 46.7494L146.914 54.4057H151.893L149.403 46.7494Z" fill="#184473"/>
<path d="M164.424 53.7972V61.4251H160.747V40.7065C163.198 40.6027 164.632 40.5508 165.047 40.5508C168.319 40.5508 170.709 41.0556 172.218 42.0651C173.736 43.0652 174.495 44.6313 174.495 46.7636C174.495 51.5187 171.694 53.8962 166.093 53.8962C165.678 53.8962 165.122 53.8632 164.424 53.7972ZM164.424 43.8907V50.528C165.047 50.5941 165.537 50.6271 165.895 50.6271C167.574 50.6271 168.8 50.3488 169.573 49.7921C170.346 49.226 170.733 48.3109 170.733 47.0466C170.733 44.8955 169.002 43.8199 165.542 43.8199C165.155 43.8199 164.783 43.8435 164.424 43.8907Z" fill="#184473"/>
<path d="M177.819 61.4251V40.6923H181.496V61.4251H177.819Z" fill="#184473"/>
<path d="M194.24 43.9615V61.4251H190.562V43.9615H183.971V40.6923H201.128V43.9615H194.24Z" fill="#184473"/>
<path d="M212.896 61.4251L211.383 57.222H204.282L202.84 61.4251H198.752L207.012 40.4093H208.624L216.955 61.4251H212.896ZM207.818 46.7494L205.329 54.4057H210.308L207.818 46.7494Z" fill="#184473"/>
<path d="M219.162 61.4251V40.6923H222.839V58.156H232.203V61.4251H219.162Z" fill="#184473"/>
<path d="M143.972 90.4228H140.408L138.258 79.2426L134.085 90.6917H132.77L128.597 79.2426L126.363 90.4228H122.812L126.985 69.6758H128.937L133.421 83.6439L137.805 69.6758H139.743L143.972 90.4228Z" fill="#184473"/>
<path d="M158.328 90.4086L156.815 86.2055H149.714L148.272 90.4086H144.184L152.444 69.3928H154.057L162.388 90.4086H158.328ZM153.25 75.7329L150.761 83.3892H155.74L153.25 75.7329Z" fill="#184473"/>
<path d="M178.186 90.6917L168.13 77.5727V90.4228H164.594V69.6758H166.362L176.15 82.1863V69.6758H179.686V90.6917H178.186Z" fill="#184473"/>
<path d="M196.036 90.4086L194.523 86.2055H187.423L185.98 90.4086H181.892L190.152 69.3928H191.765L200.096 90.4086H196.036ZM190.959 75.7329L188.469 83.3892H193.448L190.959 75.7329Z" fill="#184473"/>
<path d="M217.606 71.3599L216.064 74.3177C215.63 73.9309 214.961 73.5488 214.056 73.1714C213.151 72.7846 212.373 72.5912 211.722 72.5912C209.685 72.5912 208.078 73.2846 206.899 74.6715C205.72 76.049 205.131 77.8982 205.131 80.2191C205.131 82.4269 205.706 84.1912 206.856 85.512C208.016 86.8329 209.591 87.4933 211.581 87.4933C212.891 87.4933 213.971 87.1348 214.82 86.4178V82.342H211.948V79.2002H218.497V88.484C217.62 89.201 216.489 89.7624 215.102 90.1681C213.726 90.5643 212.354 90.7624 210.986 90.7624C208.016 90.7624 205.659 89.7907 203.914 87.8471C202.179 85.8941 201.312 83.3184 201.312 80.1201C201.312 76.9217 202.26 74.3224 204.155 72.3223C206.05 70.3221 208.601 69.322 211.807 69.322C214.079 69.322 216.012 70.0013 217.606 71.3599Z" fill="#184473"/>
<path d="M225.442 72.945V77.7991H232.287V80.9267H225.442V87.1395H234.833V90.4086H221.764V69.6758H234.989V72.945H225.442Z" fill="#184473"/>
<path d="M257.577 90.4228H254.013L251.863 79.2426L247.69 90.6917H246.375L242.202 79.2426L239.968 90.4228H236.417L240.59 69.6758H242.542L247.026 83.6439L251.41 69.6758H253.348L257.577 90.4228Z" fill="#184473"/>
<path d="M263.517 72.945V77.7991H270.363V80.9267H263.517V87.1395H272.909V90.4086H259.84V69.6758H273.065V72.945H263.517Z" fill="#184473"/>
<path d="M289.924 90.6917L279.868 77.5727V90.4228H276.332V69.6758H278.1L287.888 82.1863V69.6758H291.424V90.6917H289.924Z" fill="#184473"/>
<path d="M304.111 72.945V90.4086H300.433V72.945H293.842V69.6758H310.999V72.945H304.111Z" fill="#184473"/>
<defs>
<linearGradient id="paint0_linear" x1="51.1801" y1="0" x2="51.1801" y2="57.8323" gradientUnits="userSpaceOnUse">
<stop stop-color="#B19F8B"/>
<stop offset="1" stop-color="#7D6850"/>
</linearGradient>
<linearGradient id="paint1_linear" x1="51.1801" y1="-3.31971e-06" x2="51.1801" y2="57.8323" gradientUnits="userSpaceOnUse">
<stop stop-color="#B19F8B"/>
<stop offset="1" stop-color="#7D6850"/>
</linearGradient>
</defs>
</svg>
