<svg width="656" height="314" viewBox="0 0 656 314" fill="none" xmlns="http://www.w3.org/2000/svg">
<path d="M6 166C16.593 163.83 44.8411 158.89 73.0892 156.486C108.399 153.482 161.365 147.974 195.968 136.957C230.572 125.941 328.028 73.3642 425.484 47.326C503.449 26.4954 610.98 23.9584 655 25.2937" stroke="#DCAA73"/>
<g filter="url(#filter0_d)">
<circle r="3" transform="matrix(-1 0 0 1 20 163)" fill="white"/>
<circle r="2.5" transform="matrix(-1 0 0 1 20 163)" stroke="#184473"/>
</g>
<g filter="url(#filter1_d)">
<circle r="3" transform="matrix(-1 0 0 1 79 156)" fill="white"/>
<circle r="2.5" transform="matrix(-1 0 0 1 79 156)" stroke="#184473"/>
</g>
<g filter="url(#filter2_d)">
<circle r="3" transform="matrix(-1 0 0 1 141 149)" fill="white"/>
<circle r="2.5" transform="matrix(-1 0 0 1 141 149)" stroke="#184473"/>
</g>
<g filter="url(#filter3_d)">
<circle r="3" transform="matrix(-1 0 0 1 203 134)" fill="white"/>
<circle r="2.5" transform="matrix(-1 0 0 1 203 134)" stroke="#184473"/>
</g>
<g filter="url(#filter4_d)">
<circle r="3" transform="matrix(-1 0 0 1 263 108)" fill="white"/>
<circle r="2.5" transform="matrix(-1 0 0 1 263 108)" stroke="#184473"/>
</g>
<g filter="url(#filter5_d)">
<circle r="3" transform="matrix(-1 0 0 1 324 82)" fill="white"/>
<circle r="2.5" transform="matrix(-1 0 0 1 324 82)" stroke="#184473"/>
</g>
<g filter="url(#filter6_d)">
<circle r="3" transform="matrix(-1 0 0 1 387 58)" fill="white"/>
<circle r="2.5" transform="matrix(-1 0 0 1 387 58)" stroke="#184473"/>
</g>
<g filter="url(#filter7_d)">
<circle r="3" transform="matrix(-1 0 0 1 450 41)" fill="white"/>
<circle r="2.5" transform="matrix(-1 0 0 1 450 41)" stroke="#184473"/>
</g>
<g filter="url(#filter8_d)">
<circle r="3" transform="matrix(-1 0 0 1 512 31)" fill="white"/>
<circle r="2.5" transform="matrix(-1 0 0 1 512 31)" stroke="#184473"/>
</g>
<g filter="url(#filter9_d)">
<circle r="3" transform="matrix(-1 0 0 1 574 26)" fill="white"/>
<circle r="2.5" transform="matrix(-1 0 0 1 574 26)" stroke="#184473"/>
</g>
<g filter="url(#filter10_d)">
<circle r="3" transform="matrix(-1 0 0 1 637 24)" fill="white"/>
<circle r="2.5" transform="matrix(-1 0 0 1 637 24)" stroke="#184473"/>
</g>
<path d="M75.7417 145.796C76.4837 146.692 77.6177 147.168 78.7797 147.168C80.7677 147.168 82.2797 145.74 82.2797 143.85C82.2797 142.058 80.9217 140.616 78.8357 140.616C78.3597 140.616 77.7857 140.784 77.5477 140.91H77.5197C77.5197 140.91 77.5757 140.714 77.6037 140.406L77.8277 138.32H81.6217V137.116H76.6237L76.1337 142.016L76.9457 142.31C77.4077 142.002 78.0377 141.82 78.6117 141.82C79.8857 141.82 80.8517 142.66 80.8517 143.85C80.8517 145.054 79.8577 145.852 78.6957 145.852C77.6737 145.852 76.9457 145.306 76.5257 144.788L75.7417 145.796Z" fill="black"/>
<path d="M138.121 135.52C138.121 138.32 139.717 140.168 141.817 140.168C143.665 140.168 144.995 138.782 144.995 136.878C144.995 135.016 143.749 133.616 141.873 133.616C141.005 133.616 140.109 133.98 139.689 134.54H139.661C139.871 132.902 140.823 131.222 142.615 131.222C143.105 131.222 143.721 131.376 144.043 131.544L144.491 130.354C143.903 130.074 143.217 129.948 142.559 129.948C139.507 129.948 138.121 132.972 138.121 135.52ZM141.859 138.894C140.445 138.894 139.577 137.298 139.577 136.234C139.577 135.338 140.557 134.778 141.593 134.778C142.867 134.778 143.623 135.646 143.623 136.878C143.623 138.012 142.923 138.894 141.859 138.894Z" fill="black"/>
<path d="M200.528 124H201.97L206.422 115.068V114.116H199.814V115.32H204.238C204.742 115.32 204.938 115.292 204.938 115.292V115.32C204.938 115.32 204.672 115.656 204.378 116.23L200.528 124Z" fill="black"/>
<path d="M257.079 98H262.777V96.796H260.607V88.116H259.375L257.009 90.412L257.849 91.28L258.773 90.384C259.137 90.02 259.249 89.81 259.249 89.81H259.277C259.277 89.81 259.263 90.104 259.263 90.412V96.796H257.079V98ZM264.487 98H265.929L270.381 89.068V88.116H263.773V89.32H268.197C268.701 89.32 268.897 89.292 268.897 89.292V89.32C268.897 89.32 268.631 89.656 268.337 90.23L264.487 98Z" fill="black"/>
<path d="M317.151 73H323.521V71.796H318.593C318.649 69.542 323.367 69.038 323.367 65.79C323.367 64.082 322.065 62.948 320.259 62.948C318.803 62.948 317.683 63.788 317.123 64.824L318.145 65.51C318.565 64.796 319.321 64.25 320.147 64.25C321.197 64.25 321.939 64.922 321.939 65.888C321.939 68.212 317.081 68.73 317.081 72.244C317.081 72.482 317.109 72.734 317.151 73ZM325.512 72.762C326.114 73.056 326.8 73.168 327.43 73.168C330.496 73.168 331.882 70.144 331.882 67.61C331.882 64.782 330.3 62.948 328.186 62.948C326.338 62.948 325.008 64.306 325.008 66.252C325.008 68.086 326.254 69.5 328.13 69.5C328.998 69.5 329.908 69.136 330.314 68.576H330.342C330.132 70.214 329.194 71.894 327.374 71.894C326.842 71.894 326.296 71.726 325.96 71.558L325.512 72.762ZM328.41 68.338C327.15 68.338 326.394 67.456 326.394 66.252C326.394 65.09 327.066 64.222 328.2 64.222C329.46 64.222 330.44 65.664 330.44 66.952C330.44 67.652 329.53 68.338 328.41 68.338Z" fill="black"/>
<path d="M379.885 46.824C380.725 47.692 381.929 48.168 383.091 48.168C385.121 48.168 386.451 46.684 386.451 45.004C386.451 43.072 384.855 42.232 383.553 42.106L386.241 38.998V38.116H380.333V39.32H383.679C384.225 39.32 384.519 39.278 384.519 39.278V39.306C384.519 39.306 384.211 39.558 383.903 39.95L381.747 42.484L382.069 43.226H382.741C383.973 43.226 385.051 43.828 385.051 45.046C385.051 46.11 384.127 46.852 383.035 46.852C382.083 46.852 381.173 46.348 380.641 45.774L379.885 46.824ZM388.5 48H389.942L394.394 39.068V38.116H387.786V39.32H392.21C392.714 39.32 392.91 39.292 392.91 39.292V39.32C392.91 39.32 392.644 39.656 392.35 40.23L388.5 48Z" fill="black"/>
<path d="M442.691 29.354H447.479V32H448.837V29.354H450.181V28.192H448.837V22.116H447.269L442.691 28.486V29.354ZM444.217 28.192V28.164L447.017 24.412C447.283 24.062 447.507 23.586 447.507 23.586H447.535C447.535 23.586 447.479 24.118 447.479 24.58V28.192H444.217ZM451.6 32H457.97V30.796H453.042C453.098 28.542 457.816 28.038 457.816 24.79C457.816 23.082 456.514 21.948 454.708 21.948C453.252 21.948 452.132 22.788 451.572 23.824L452.594 24.51C453.014 23.796 453.77 23.25 454.596 23.25C455.646 23.25 456.388 23.922 456.388 24.888C456.388 27.212 451.53 27.73 451.53 31.244C451.53 31.482 451.558 31.734 451.6 32Z" fill="black"/>
<path d="M505.065 20.796C505.807 21.692 506.941 22.168 508.103 22.168C510.091 22.168 511.603 20.74 511.603 18.85C511.603 17.058 510.245 15.616 508.159 15.616C507.683 15.616 507.109 15.784 506.871 15.91H506.843C506.843 15.91 506.899 15.714 506.927 15.406L507.151 13.32H510.945V12.116H505.947L505.457 17.016L506.269 17.31C506.731 17.002 507.361 16.82 507.935 16.82C509.209 16.82 510.175 17.66 510.175 18.85C510.175 20.054 509.181 20.852 508.019 20.852C506.997 20.852 506.269 20.306 505.849 19.788L505.065 20.796ZM513.066 17.52C513.066 20.32 514.662 22.168 516.762 22.168C518.61 22.168 519.94 20.782 519.94 18.878C519.94 17.016 518.694 15.616 516.818 15.616C515.95 15.616 515.054 15.98 514.634 16.54H514.606C514.816 14.902 515.768 13.222 517.56 13.222C518.05 13.222 518.666 13.376 518.988 13.544L519.436 12.354C518.848 12.074 518.162 11.948 517.504 11.948C514.452 11.948 513.066 14.972 513.066 17.52ZM516.804 20.894C515.39 20.894 514.522 19.298 514.522 18.234C514.522 17.338 515.502 16.778 516.538 16.778C517.812 16.778 518.568 17.646 518.568 18.878C518.568 20.012 517.868 20.894 516.804 20.894Z" fill="black"/>
<path d="M567.024 14.796C567.766 15.692 568.9 16.168 570.062 16.168C572.05 16.168 573.562 14.74 573.562 12.85C573.562 11.058 572.204 9.616 570.118 9.616C569.642 9.616 569.068 9.784 568.83 9.91H568.802C568.802 9.91 568.858 9.714 568.886 9.406L569.11 7.32H572.904V6.116H567.906L567.416 11.016L568.228 11.31C568.69 11.002 569.32 10.82 569.894 10.82C571.168 10.82 572.134 11.66 572.134 12.85C572.134 14.054 571.14 14.852 569.978 14.852C568.956 14.852 568.228 14.306 567.808 13.788L567.024 14.796ZM574.997 13.186C574.997 14.908 576.481 16.168 578.427 16.168C580.499 16.168 581.815 14.81 581.815 13.27C581.815 12.248 581.241 11.632 580.471 11.17C580.765 10.876 581.661 9.826 581.661 8.58C581.661 6.984 580.387 5.948 578.553 5.948C576.467 5.948 575.473 7.208 575.473 8.566C575.473 9.462 575.935 10.064 576.579 10.512C576.201 10.764 574.997 11.688 574.997 13.186ZM579.407 10.638C578.175 10.092 576.845 9.686 576.845 8.566C576.845 7.81 577.447 7.194 578.525 7.194C579.575 7.194 580.303 7.754 580.303 8.692C580.303 9.658 579.617 10.414 579.407 10.638ZM576.411 13.074C576.411 11.996 577.293 11.338 577.615 11.114C578.903 11.73 580.401 12.122 580.401 13.242C580.401 14.25 579.463 14.922 578.413 14.922C577.391 14.922 576.411 14.18 576.411 13.074Z" fill="black"/>
<path d="M629.267 10.52C629.267 13.32 630.863 15.168 632.963 15.168C634.811 15.168 636.141 13.782 636.141 11.878C636.141 10.016 634.895 8.616 633.019 8.616C632.151 8.616 631.255 8.98 630.835 9.54H630.807C631.017 7.902 631.969 6.222 633.761 6.222C634.251 6.222 634.867 6.376 635.189 6.544L635.637 5.354C635.049 5.074 634.363 4.948 633.705 4.948C630.653 4.948 629.267 7.972 629.267 10.52ZM633.005 13.894C631.591 13.894 630.723 12.298 630.723 11.234C630.723 10.338 631.703 9.778 632.739 9.778C634.013 9.778 634.769 10.646 634.769 11.878C634.769 13.012 634.069 13.894 633.005 13.894ZM641.176 15.168C643.822 15.168 644.676 12.9 644.676 10.044C644.676 7.202 643.822 4.948 641.176 4.948C638.544 4.948 637.676 7.202 637.676 10.044C637.676 12.9 638.544 15.168 641.176 15.168ZM641.176 13.894C639.566 13.894 639.104 12.214 639.104 10.044C639.104 7.902 639.566 6.222 641.176 6.222C642.8 6.222 643.248 7.902 643.248 10.044C643.248 12.214 642.8 13.894 641.176 13.894Z" fill="black"/>
<path opacity="0.5" d="M626.717 307H631.117V306.38H627.437C627.457 304.51 631.007 304.18 631.007 301.82C631.007 300.72 630.197 299.85 628.867 299.85C627.917 299.85 627.127 300.41 626.737 301.12L627.247 301.47C627.587 300.92 628.167 300.51 628.827 300.51C629.707 300.51 630.287 301.09 630.287 301.86C630.287 303.76 626.677 304.08 626.677 306.55C626.677 306.69 626.697 306.84 626.717 307ZM634.821 307.12C636.651 307.12 637.251 305.51 637.251 303.48C637.251 301.46 636.651 299.85 634.821 299.85C633.001 299.85 632.401 301.46 632.401 303.48C632.401 305.51 633.001 307.12 634.821 307.12ZM634.821 306.47C633.491 306.47 633.121 305.17 633.121 303.48C633.121 301.81 633.491 300.51 634.821 300.51C636.161 300.51 636.531 301.81 636.531 303.48C636.531 305.17 636.161 306.47 634.821 306.47ZM638.483 307H642.293V306.38H640.743V299.97H640.103L638.513 301.55L638.953 301.99L639.703 301.25C639.983 300.97 640.053 300.83 640.053 300.83H640.073C640.073 300.83 640.063 301.02 640.063 301.22V306.38H638.483V307ZM643.66 307H644.38L647.64 300.45V299.97H643.07V300.59H646.36C646.71 300.59 646.88 300.57 646.88 300.57V300.59C646.88 300.59 646.69 300.86 646.5 301.24L643.66 307Z" fill="black"/>
<rect x="640" y="47" width="15" height="246" fill="url(#paint0_linear)"/>
<rect x="620" y="200" width="15" height="93" fill="url(#paint1_linear)"/>
<path opacity="0.5" d="M563.909 307H568.309V306.38H564.629C564.649 304.51 568.199 304.18 568.199 301.82C568.199 300.72 567.389 299.85 566.059 299.85C565.109 299.85 564.319 300.41 563.929 301.12L564.439 301.47C564.779 300.92 565.359 300.51 566.019 300.51C566.899 300.51 567.479 301.09 567.479 301.86C567.479 303.76 563.869 304.08 563.869 306.55C563.869 306.69 563.889 306.84 563.909 307ZM572.014 307.12C573.844 307.12 574.444 305.51 574.444 303.48C574.444 301.46 573.844 299.85 572.014 299.85C570.194 299.85 569.594 301.46 569.594 303.48C569.594 305.51 570.194 307.12 572.014 307.12ZM572.014 306.47C570.684 306.47 570.314 305.17 570.314 303.48C570.314 301.81 570.684 300.51 572.014 300.51C573.354 300.51 573.724 301.81 573.724 303.48C573.724 305.17 573.354 306.47 572.014 306.47ZM575.675 307H579.485V306.38H577.935V299.97H577.295L575.705 301.55L576.145 301.99L576.895 301.25C577.175 300.97 577.245 300.83 577.245 300.83H577.265C577.265 300.83 577.255 301.02 577.255 301.22V306.38H575.675V307ZM580.442 303.83C580.442 305.71 581.452 307.12 582.982 307.12C584.212 307.12 585.182 306.22 585.182 304.8C585.182 303.43 584.282 302.5 583.002 302.5C582.272 302.5 581.562 302.82 581.222 303.32H581.202C581.322 301.96 582.072 300.51 583.522 300.51C583.882 300.51 584.302 300.6 584.562 300.75L584.822 300.14C584.422 299.94 583.972 299.85 583.522 299.85C581.352 299.85 580.442 302.06 580.442 303.83ZM583.022 306.47C581.812 306.47 581.192 305.12 581.192 304.4C581.192 303.64 582.032 303.12 582.892 303.12C583.852 303.12 584.482 303.77 584.482 304.78C584.482 305.75 583.902 306.47 583.022 306.47Z" fill="black"/>
<rect x="578" y="54" width="15" height="239" fill="url(#paint2_linear)"/>
<rect x="558" y="208" width="15" height="85" fill="url(#paint3_linear)"/>
<path opacity="0.5" d="M502.08 307H506.48V306.38H502.8C502.82 304.51 506.37 304.18 506.37 301.82C506.37 300.72 505.56 299.85 504.23 299.85C503.28 299.85 502.49 300.41 502.1 301.12L502.61 301.47C502.95 300.92 503.53 300.51 504.19 300.51C505.07 300.51 505.65 301.09 505.65 301.86C505.65 303.76 502.04 304.08 502.04 306.55C502.04 306.69 502.06 306.84 502.08 307ZM510.184 307.12C512.014 307.12 512.614 305.51 512.614 303.48C512.614 301.46 512.014 299.85 510.184 299.85C508.364 299.85 507.764 301.46 507.764 303.48C507.764 305.51 508.364 307.12 510.184 307.12ZM510.184 306.47C508.854 306.47 508.484 305.17 508.484 303.48C508.484 301.81 508.854 300.51 510.184 300.51C511.524 300.51 511.894 301.81 511.894 303.48C511.894 305.17 511.524 306.47 510.184 306.47ZM513.846 307H517.656V306.38H516.106V299.97H515.466L513.876 301.55L514.316 301.99L515.066 301.25C515.346 300.97 515.416 300.83 515.416 300.83H515.436C515.436 300.83 515.426 301.02 515.426 301.22V306.38H513.846V307ZM518.533 306.13C519.003 306.76 519.783 307.12 520.593 307.12C521.963 307.12 523.033 306.11 523.033 304.81C523.033 303.55 522.023 302.52 520.613 302.52C520.203 302.52 519.743 302.67 519.553 302.79H519.533C519.533 302.79 519.563 302.64 519.593 302.39L519.803 300.59H522.593V299.97H519.193L518.813 303.38L519.253 303.54C519.603 303.3 520.103 303.15 520.533 303.15C521.543 303.15 522.313 303.85 522.313 304.81C522.313 305.77 521.533 306.45 520.563 306.45C519.773 306.45 519.253 306.03 518.983 305.64L518.533 306.13Z" fill="black"/>
<rect x="516" y="59" width="15" height="234" fill="url(#paint4_linear)"/>
<rect x="496" y="218" width="15" height="75" fill="url(#paint5_linear)"/>
<path opacity="0.5" d="M439.933 307H444.333V306.38H440.653C440.673 304.51 444.223 304.18 444.223 301.82C444.223 300.72 443.413 299.85 442.083 299.85C441.133 299.85 440.343 300.41 439.953 301.12L440.463 301.47C440.803 300.92 441.383 300.51 442.043 300.51C442.923 300.51 443.503 301.09 443.503 301.86C443.503 303.76 439.893 304.08 439.893 306.55C439.893 306.69 439.913 306.84 439.933 307ZM448.038 307.12C449.868 307.12 450.468 305.51 450.468 303.48C450.468 301.46 449.868 299.85 448.038 299.85C446.218 299.85 445.618 301.46 445.618 303.48C445.618 305.51 446.218 307.12 448.038 307.12ZM448.038 306.47C446.708 306.47 446.338 305.17 446.338 303.48C446.338 301.81 446.708 300.51 448.038 300.51C449.378 300.51 449.748 301.81 449.748 303.48C449.748 305.17 449.378 306.47 448.038 306.47ZM451.7 307H455.51V306.38H453.96V299.97H453.32L451.73 301.55L452.17 301.99L452.92 301.25C453.2 300.97 453.27 300.83 453.27 300.83H453.29C453.29 300.83 453.28 301.02 453.28 301.22V306.38H451.7V307ZM456.061 305.05H459.571V307H460.261V305.05H461.261V304.45H460.261V299.97H459.511L456.061 304.6V305.05ZM456.891 304.45V304.43L459.241 301.37C459.421 301.12 459.591 300.83 459.591 300.83H459.611C459.611 300.83 459.571 301.2 459.571 301.5V304.45H456.891Z" fill="black"/>
<rect x="454" y="77" width="15" height="216" fill="url(#paint6_linear)"/>
<rect x="434" y="230" width="15" height="63" fill="url(#paint7_linear)"/>
<path opacity="0.5" d="M378.046 307H382.446V306.38H378.766C378.786 304.51 382.336 304.18 382.336 301.82C382.336 300.72 381.526 299.85 380.196 299.85C379.246 299.85 378.456 300.41 378.066 301.12L378.576 301.47C378.916 300.92 379.496 300.51 380.156 300.51C381.036 300.51 381.616 301.09 381.616 301.86C381.616 303.76 378.006 304.08 378.006 306.55C378.006 306.69 378.026 306.84 378.046 307ZM386.15 307.12C387.98 307.12 388.58 305.51 388.58 303.48C388.58 301.46 387.98 299.85 386.15 299.85C384.33 299.85 383.73 301.46 383.73 303.48C383.73 305.51 384.33 307.12 386.15 307.12ZM386.15 306.47C384.82 306.47 384.45 305.17 384.45 303.48C384.45 301.81 384.82 300.51 386.15 300.51C387.49 300.51 387.86 301.81 387.86 303.48C387.86 305.17 387.49 306.47 386.15 306.47ZM389.812 307H393.622V306.38H392.072V299.97H391.432L389.842 301.55L390.282 301.99L391.032 301.25C391.312 300.97 391.382 300.83 391.382 300.83H391.402C391.402 300.83 391.392 301.02 391.392 301.22V306.38H389.812V307ZM394.449 306.16C395.029 306.76 395.859 307.12 396.679 307.12C398.009 307.12 398.989 306.12 398.989 304.92C398.989 303.4 397.679 302.89 396.799 302.85L398.889 300.43V299.97H394.779V300.59H397.419C397.789 300.59 397.989 300.56 397.989 300.56V300.58C397.989 300.58 397.809 300.75 397.619 300.97L395.859 303.03L396.029 303.44H396.519C397.429 303.44 398.279 303.95 398.279 304.94C398.279 305.84 397.519 306.45 396.679 306.45C395.949 306.45 395.269 306.06 394.879 305.63L394.449 306.16Z" fill="black"/>
<rect x="392" y="96" width="15" height="197" fill="url(#paint8_linear)"/>
<rect x="372" y="259" width="15" height="34" fill="url(#paint9_linear)"/>
<path opacity="0.5" d="M318.031 307H322.431V306.38H318.751C318.771 304.51 322.321 304.18 322.321 301.82C322.321 300.72 321.511 299.85 320.181 299.85C319.231 299.85 318.441 300.41 318.051 301.12L318.561 301.47C318.901 300.92 319.481 300.51 320.141 300.51C321.021 300.51 321.601 301.09 321.601 301.86C321.601 303.76 317.991 304.08 317.991 306.55C317.991 306.69 318.011 306.84 318.031 307ZM326.136 307.12C327.966 307.12 328.566 305.51 328.566 303.48C328.566 301.46 327.966 299.85 326.136 299.85C324.316 299.85 323.716 301.46 323.716 303.48C323.716 305.51 324.316 307.12 326.136 307.12ZM326.136 306.47C324.806 306.47 324.436 305.17 324.436 303.48C324.436 301.81 324.806 300.51 326.136 300.51C327.476 300.51 327.846 301.81 327.846 303.48C327.846 305.17 327.476 306.47 326.136 306.47ZM329.798 307H333.608V306.38H332.058V299.97H331.418L329.828 301.55L330.268 301.99L331.018 301.25C331.298 300.97 331.368 300.83 331.368 300.83H331.388C331.388 300.83 331.378 301.02 331.378 301.22V306.38H329.798V307ZM334.564 307H338.964V306.38H335.284C335.304 304.51 338.854 304.18 338.854 301.82C338.854 300.72 338.044 299.85 336.714 299.85C335.764 299.85 334.974 300.41 334.584 301.12L335.094 301.47C335.434 300.92 336.014 300.51 336.674 300.51C337.554 300.51 338.134 301.09 338.134 301.86C338.134 303.76 334.524 304.08 334.524 306.55C334.524 306.69 334.544 306.84 334.564 307Z" fill="black"/>
<rect x="330" y="117" width="15" height="176" fill="url(#paint10_linear)"/>
<rect x="310" y="268" width="15" height="25" fill="url(#paint11_linear)"/>
<path opacity="0.5" d="M254.995 307H259.395V306.38H255.715C255.735 304.51 259.285 304.18 259.285 301.82C259.285 300.72 258.475 299.85 257.145 299.85C256.195 299.85 255.405 300.41 255.015 301.12L255.525 301.47C255.865 300.92 256.445 300.51 257.105 300.51C257.985 300.51 258.565 301.09 258.565 301.86C258.565 303.76 254.955 304.08 254.955 306.55C254.955 306.69 254.975 306.84 254.995 307ZM263.1 307.12C264.93 307.12 265.53 305.51 265.53 303.48C265.53 301.46 264.93 299.85 263.1 299.85C261.28 299.85 260.68 301.46 260.68 303.48C260.68 305.51 261.28 307.12 263.1 307.12ZM263.1 306.47C261.77 306.47 261.4 305.17 261.4 303.48C261.4 301.81 261.77 300.51 263.1 300.51C264.44 300.51 264.81 301.81 264.81 303.48C264.81 305.17 264.44 306.47 263.1 306.47ZM266.761 307H270.571V306.38H269.021V299.97H268.381L266.791 301.55L267.231 301.99L267.981 301.25C268.261 300.97 268.331 300.83 268.331 300.83H268.351C268.351 300.83 268.341 301.02 268.341 301.22V306.38H266.761V307ZM271.478 307H275.288V306.38H273.738V299.97H273.098L271.508 301.55L271.948 301.99L272.698 301.25C272.978 300.97 273.048 300.83 273.048 300.83H273.068C273.068 300.83 273.058 301.02 273.058 301.22V306.38H271.478V307Z" fill="black"/>
<rect x="268" y="193" width="15" height="100" fill="url(#paint12_linear)"/>
<rect x="248" y="275" width="15" height="18" fill="url(#paint13_linear)"/>
<path opacity="0.5" d="M191.767 307H196.167V306.38H192.487C192.507 304.51 196.057 304.18 196.057 301.82C196.057 300.72 195.247 299.85 193.917 299.85C192.967 299.85 192.177 300.41 191.787 301.12L192.297 301.47C192.637 300.92 193.217 300.51 193.877 300.51C194.757 300.51 195.337 301.09 195.337 301.86C195.337 303.76 191.727 304.08 191.727 306.55C191.727 306.69 191.747 306.84 191.767 307ZM199.872 307.12C201.702 307.12 202.302 305.51 202.302 303.48C202.302 301.46 201.702 299.85 199.872 299.85C198.052 299.85 197.452 301.46 197.452 303.48C197.452 305.51 198.052 307.12 199.872 307.12ZM199.872 306.47C198.542 306.47 198.172 305.17 198.172 303.48C198.172 301.81 198.542 300.51 199.872 300.51C201.212 300.51 201.582 301.81 201.582 303.48C201.582 305.17 201.212 306.47 199.872 306.47ZM203.534 307H207.344V306.38H205.794V299.97H205.154L203.564 301.55L204.004 301.99L204.754 301.25C205.034 300.97 205.104 300.83 205.104 300.83H205.124C205.124 300.83 205.114 301.02 205.114 301.22V306.38H203.534V307ZM210.761 307.12C212.591 307.12 213.191 305.51 213.191 303.48C213.191 301.46 212.591 299.85 210.761 299.85C208.941 299.85 208.341 301.46 208.341 303.48C208.341 305.51 208.941 307.12 210.761 307.12ZM210.761 306.47C209.431 306.47 209.061 305.17 209.061 303.48C209.061 301.81 209.431 300.51 210.761 300.51C212.101 300.51 212.471 301.81 212.471 303.48C212.471 305.17 212.101 306.47 210.761 306.47Z" fill="black"/>
<rect x="206" y="249" width="15" height="44" fill="url(#paint14_linear)"/>
<rect x="186" y="286" width="15" height="7" fill="url(#paint15_linear)"/>
<path opacity="0.5" d="M130.682 307H135.082V306.38H131.402C131.422 304.51 134.972 304.18 134.972 301.82C134.972 300.72 134.162 299.85 132.832 299.85C131.882 299.85 131.092 300.41 130.702 301.12L131.212 301.47C131.552 300.92 132.132 300.51 132.792 300.51C133.672 300.51 134.252 301.09 134.252 301.86C134.252 303.76 130.642 304.08 130.642 306.55C130.642 306.69 130.662 306.84 130.682 307ZM138.786 307.12C140.616 307.12 141.216 305.51 141.216 303.48C141.216 301.46 140.616 299.85 138.786 299.85C136.966 299.85 136.366 301.46 136.366 303.48C136.366 305.51 136.966 307.12 138.786 307.12ZM138.786 306.47C137.456 306.47 137.086 305.17 137.086 303.48C137.086 301.81 137.456 300.51 138.786 300.51C140.126 300.51 140.496 301.81 140.496 303.48C140.496 305.17 140.126 306.47 138.786 306.47ZM144.958 307.12C146.788 307.12 147.388 305.51 147.388 303.48C147.388 301.46 146.788 299.85 144.958 299.85C143.138 299.85 142.538 301.46 142.538 303.48C142.538 305.51 143.138 307.12 144.958 307.12ZM144.958 306.47C143.628 306.47 143.258 305.17 143.258 303.48C143.258 301.81 143.628 300.51 144.958 300.51C146.298 300.51 146.668 301.81 146.668 303.48C146.668 305.17 146.298 306.47 144.958 306.47ZM148.94 306.83C149.35 307.03 149.8 307.12 150.23 307.12C152.41 307.12 153.32 304.91 153.32 303.15C153.32 301.25 152.31 299.85 150.79 299.85C149.56 299.85 148.58 300.74 148.58 302.19C148.58 303.53 149.48 304.47 150.77 304.47C151.49 304.47 152.2 304.15 152.55 303.65H152.57C152.44 305.02 151.7 306.47 150.23 306.47C149.83 306.47 149.43 306.34 149.21 306.22L148.94 306.83ZM150.87 303.85C149.91 303.85 149.28 303.19 149.28 302.19C149.28 301.22 149.84 300.51 150.8 300.51C151.85 300.51 152.58 301.71 152.58 302.65C152.58 303.22 151.82 303.85 150.87 303.85Z" fill="black"/>
<rect x="144" y="279" width="15" height="14" fill="url(#paint16_linear)"/>
<rect x="124" y="288" width="15" height="5" fill="url(#paint17_linear)"/>
<path opacity="0.5" d="M69.6522 307H74.0522V306.38H70.3722C70.3922 304.51 73.9422 304.18 73.9422 301.82C73.9422 300.72 73.1322 299.85 71.8022 299.85C70.8522 299.85 70.0622 300.41 69.6722 301.12L70.1822 301.47C70.5222 300.92 71.1022 300.51 71.7622 300.51C72.6422 300.51 73.2222 301.09 73.2222 301.86C73.2222 303.76 69.6122 304.08 69.6122 306.55C69.6122 306.69 69.6322 306.84 69.6522 307ZM77.7568 307.12C79.5868 307.12 80.1868 305.51 80.1868 303.48C80.1868 301.46 79.5868 299.85 77.7568 299.85C75.9368 299.85 75.3368 301.46 75.3368 303.48C75.3368 305.51 75.9368 307.12 77.7568 307.12ZM77.7568 306.47C76.4268 306.47 76.0568 305.17 76.0568 303.48C76.0568 301.81 76.4268 300.51 77.7568 300.51C79.0968 300.51 79.4668 301.81 79.4668 303.48C79.4668 305.17 79.0968 306.47 77.7568 306.47ZM83.9286 307.12C85.7586 307.12 86.3586 305.51 86.3586 303.48C86.3586 301.46 85.7586 299.85 83.9286 299.85C82.1086 299.85 81.5086 301.46 81.5086 303.48C81.5086 305.51 82.1086 307.12 83.9286 307.12ZM83.9286 306.47C82.5986 306.47 82.2286 305.17 82.2286 303.48C82.2286 301.81 82.5986 300.51 83.9286 300.51C85.2686 300.51 85.6386 301.81 85.6386 303.48C85.6386 305.17 85.2686 306.47 83.9286 306.47ZM87.6105 305.02C87.6105 306.3 88.7305 307.12 89.9905 307.12C91.3605 307.12 92.3205 306.19 92.3205 305.09C92.3205 304.36 91.8905 303.92 91.3205 303.59C91.5305 303.39 92.2305 302.62 92.2305 301.67C92.2305 300.59 91.3805 299.85 90.0805 299.85C88.6605 299.85 87.9505 300.71 87.9505 301.65C87.9505 302.3 88.3105 302.73 88.8005 303.05C88.5305 303.22 87.6105 303.88 87.6105 305.02ZM90.7505 303.31C89.7805 302.86 88.6505 302.57 88.6505 301.64C88.6505 301.01 89.1705 300.49 90.0705 300.49C90.9205 300.49 91.5305 300.95 91.5305 301.72C91.5305 302.52 90.9205 303.14 90.7505 303.31ZM88.3305 304.97C88.3305 304.06 89.1205 303.52 89.3605 303.37C90.3805 303.86 91.6105 304.14 91.6105 305.1C91.6105 305.91 90.8105 306.48 89.9805 306.48C89.1505 306.48 88.3305 305.88 88.3305 304.97Z" fill="black"/>
<rect x="82" y="286" width="15" height="7" fill="url(#paint18_linear)"/>
<rect x="62" y="290" width="15" height="3" fill="url(#paint19_linear)"/>
<path opacity="0.5" d="M5.98914 307H10.3891V306.38H6.70914C6.72914 304.51 10.2791 304.18 10.2791 301.82C10.2791 300.72 9.46914 299.85 8.13914 299.85C7.18914 299.85 6.39914 300.41 6.00914 301.12L6.51914 301.47C6.85914 300.92 7.43914 300.51 8.09914 300.51C8.97914 300.51 9.55914 301.09 9.55914 301.86C9.55914 303.76 5.94914 304.08 5.94914 306.55C5.94914 306.69 5.96914 306.84 5.98914 307ZM14.0937 307.12C15.9237 307.12 16.5237 305.51 16.5237 303.48C16.5237 301.46 15.9237 299.85 14.0937 299.85C12.2737 299.85 11.6737 301.46 11.6737 303.48C11.6737 305.51 12.2737 307.12 14.0937 307.12ZM14.0937 306.47C12.7637 306.47 12.3937 305.17 12.3937 303.48C12.3937 301.81 12.7637 300.51 14.0937 300.51C15.4337 300.51 15.8037 301.81 15.8037 303.48C15.8037 305.17 15.4337 306.47 14.0937 306.47ZM20.2655 307.12C22.0955 307.12 22.6955 305.51 22.6955 303.48C22.6955 301.46 22.0955 299.85 20.2655 299.85C18.4455 299.85 17.8455 301.46 17.8455 303.48C17.8455 305.51 18.4455 307.12 20.2655 307.12ZM20.2655 306.47C18.9355 306.47 18.5655 305.17 18.5655 303.48C18.5655 301.81 18.9355 300.51 20.2655 300.51C21.6055 300.51 21.9755 301.81 21.9755 303.48C21.9755 305.17 21.6055 306.47 20.2655 306.47ZM24.3874 307H25.1074L28.3674 300.45V299.97H23.7974V300.59H27.0874C27.4374 300.59 27.6074 300.57 27.6074 300.57V300.59C27.6074 300.59 27.4174 300.86 27.2274 301.24L24.3874 307Z" fill="black"/>
<rect x="20" y="292" width="15" height="1" fill="url(#paint20_linear)"/>
<rect y="292" width="15" height="1" fill="url(#paint21_linear)"/>
<defs>
<filter id="filter0_d" x="9" y="154" width="22" height="22" filterUnits="userSpaceOnUse" color-interpolation-filters="sRGB">
<feFlood flood-opacity="0" result="BackgroundImageFix"/>
<feColorMatrix in="SourceAlpha" type="matrix" values="0 0 0 0 0 0 0 0 0 0 0 0 0 0 0 0 0 0 127 0"/>
<feOffset dy="2"/>
<feGaussianBlur stdDeviation="4"/>
<feColorMatrix type="matrix" values="0 0 0 0 0 0 0 0 0 0 0 0 0 0 0 0 0 0 0.25 0"/>
<feBlend mode="normal" in2="BackgroundImageFix" result="effect1_dropShadow"/>
<feBlend mode="normal" in="SourceGraphic" in2="effect1_dropShadow" result="shape"/>
</filter>
<filter id="filter1_d" x="68" y="147" width="22" height="22" filterUnits="userSpaceOnUse" color-interpolation-filters="sRGB">
<feFlood flood-opacity="0" result="BackgroundImageFix"/>
<feColorMatrix in="SourceAlpha" type="matrix" values="0 0 0 0 0 0 0 0 0 0 0 0 0 0 0 0 0 0 127 0"/>
<feOffset dy="2"/>
<feGaussianBlur stdDeviation="4"/>
<feColorMatrix type="matrix" values="0 0 0 0 0 0 0 0 0 0 0 0 0 0 0 0 0 0 0.25 0"/>
<feBlend mode="normal" in2="BackgroundImageFix" result="effect1_dropShadow"/>
<feBlend mode="normal" in="SourceGraphic" in2="effect1_dropShadow" result="shape"/>
</filter>
<filter id="filter2_d" x="130" y="140" width="22" height="22" filterUnits="userSpaceOnUse" color-interpolation-filters="sRGB">
<feFlood flood-opacity="0" result="BackgroundImageFix"/>
<feColorMatrix in="SourceAlpha" type="matrix" values="0 0 0 0 0 0 0 0 0 0 0 0 0 0 0 0 0 0 127 0"/>
<feOffset dy="2"/>
<feGaussianBlur stdDeviation="4"/>
<feColorMatrix type="matrix" values="0 0 0 0 0 0 0 0 0 0 0 0 0 0 0 0 0 0 0.25 0"/>
<feBlend mode="normal" in2="BackgroundImageFix" result="effect1_dropShadow"/>
<feBlend mode="normal" in="SourceGraphic" in2="effect1_dropShadow" result="shape"/>
</filter>
<filter id="filter3_d" x="192" y="125" width="22" height="22" filterUnits="userSpaceOnUse" color-interpolation-filters="sRGB">
<feFlood flood-opacity="0" result="BackgroundImageFix"/>
<feColorMatrix in="SourceAlpha" type="matrix" values="0 0 0 0 0 0 0 0 0 0 0 0 0 0 0 0 0 0 127 0"/>
<feOffset dy="2"/>
<feGaussianBlur stdDeviation="4"/>
<feColorMatrix type="matrix" values="0 0 0 0 0 0 0 0 0 0 0 0 0 0 0 0 0 0 0.25 0"/>
<feBlend mode="normal" in2="BackgroundImageFix" result="effect1_dropShadow"/>
<feBlend mode="normal" in="SourceGraphic" in2="effect1_dropShadow" result="shape"/>
</filter>
<filter id="filter4_d" x="252" y="99" width="22" height="22" filterUnits="userSpaceOnUse" color-interpolation-filters="sRGB">
<feFlood flood-opacity="0" result="BackgroundImageFix"/>
<feColorMatrix in="SourceAlpha" type="matrix" values="0 0 0 0 0 0 0 0 0 0 0 0 0 0 0 0 0 0 127 0"/>
<feOffset dy="2"/>
<feGaussianBlur stdDeviation="4"/>
<feColorMatrix type="matrix" values="0 0 0 0 0 0 0 0 0 0 0 0 0 0 0 0 0 0 0.25 0"/>
<feBlend mode="normal" in2="BackgroundImageFix" result="effect1_dropShadow"/>
<feBlend mode="normal" in="SourceGraphic" in2="effect1_dropShadow" result="shape"/>
</filter>
<filter id="filter5_d" x="313" y="73" width="22" height="22" filterUnits="userSpaceOnUse" color-interpolation-filters="sRGB">
<feFlood flood-opacity="0" result="BackgroundImageFix"/>
<feColorMatrix in="SourceAlpha" type="matrix" values="0 0 0 0 0 0 0 0 0 0 0 0 0 0 0 0 0 0 127 0"/>
<feOffset dy="2"/>
<feGaussianBlur stdDeviation="4"/>
<feColorMatrix type="matrix" values="0 0 0 0 0 0 0 0 0 0 0 0 0 0 0 0 0 0 0.25 0"/>
<feBlend mode="normal" in2="BackgroundImageFix" result="effect1_dropShadow"/>
<feBlend mode="normal" in="SourceGraphic" in2="effect1_dropShadow" result="shape"/>
</filter>
<filter id="filter6_d" x="376" y="49" width="22" height="22" filterUnits="userSpaceOnUse" color-interpolation-filters="sRGB">
<feFlood flood-opacity="0" result="BackgroundImageFix"/>
<feColorMatrix in="SourceAlpha" type="matrix" values="0 0 0 0 0 0 0 0 0 0 0 0 0 0 0 0 0 0 127 0"/>
<feOffset dy="2"/>
<feGaussianBlur stdDeviation="4"/>
<feColorMatrix type="matrix" values="0 0 0 0 0 0 0 0 0 0 0 0 0 0 0 0 0 0 0.25 0"/>
<feBlend mode="normal" in2="BackgroundImageFix" result="effect1_dropShadow"/>
<feBlend mode="normal" in="SourceGraphic" in2="effect1_dropShadow" result="shape"/>
</filter>
<filter id="filter7_d" x="439" y="32" width="22" height="22" filterUnits="userSpaceOnUse" color-interpolation-filters="sRGB">
<feFlood flood-opacity="0" result="BackgroundImageFix"/>
<feColorMatrix in="SourceAlpha" type="matrix" values="0 0 0 0 0 0 0 0 0 0 0 0 0 0 0 0 0 0 127 0"/>
<feOffset dy="2"/>
<feGaussianBlur stdDeviation="4"/>
<feColorMatrix type="matrix" values="0 0 0 0 0 0 0 0 0 0 0 0 0 0 0 0 0 0 0.25 0"/>
<feBlend mode="normal" in2="BackgroundImageFix" result="effect1_dropShadow"/>
<feBlend mode="normal" in="SourceGraphic" in2="effect1_dropShadow" result="shape"/>
</filter>
<filter id="filter8_d" x="501" y="22" width="22" height="22" filterUnits="userSpaceOnUse" color-interpolation-filters="sRGB">
<feFlood flood-opacity="0" result="BackgroundImageFix"/>
<feColorMatrix in="SourceAlpha" type="matrix" values="0 0 0 0 0 0 0 0 0 0 0 0 0 0 0 0 0 0 127 0"/>
<feOffset dy="2"/>
<feGaussianBlur stdDeviation="4"/>
<feColorMatrix type="matrix" values="0 0 0 0 0 0 0 0 0 0 0 0 0 0 0 0 0 0 0.25 0"/>
<feBlend mode="normal" in2="BackgroundImageFix" result="effect1_dropShadow"/>
<feBlend mode="normal" in="SourceGraphic" in2="effect1_dropShadow" result="shape"/>
</filter>
<filter id="filter9_d" x="563" y="17" width="22" height="22" filterUnits="userSpaceOnUse" color-interpolation-filters="sRGB">
<feFlood flood-opacity="0" result="BackgroundImageFix"/>
<feColorMatrix in="SourceAlpha" type="matrix" values="0 0 0 0 0 0 0 0 0 0 0 0 0 0 0 0 0 0 127 0"/>
<feOffset dy="2"/>
<feGaussianBlur stdDeviation="4"/>
<feColorMatrix type="matrix" values="0 0 0 0 0 0 0 0 0 0 0 0 0 0 0 0 0 0 0.25 0"/>
<feBlend mode="normal" in2="BackgroundImageFix" result="effect1_dropShadow"/>
<feBlend mode="normal" in="SourceGraphic" in2="effect1_dropShadow" result="shape"/>
</filter>
<filter id="filter10_d" x="626" y="15" width="22" height="22" filterUnits="userSpaceOnUse" color-interpolation-filters="sRGB">
<feFlood flood-opacity="0" result="BackgroundImageFix"/>
<feColorMatrix in="SourceAlpha" type="matrix" values="0 0 0 0 0 0 0 0 0 0 0 0 0 0 0 0 0 0 127 0"/>
<feOffset dy="2"/>
<feGaussianBlur stdDeviation="4"/>
<feColorMatrix type="matrix" values="0 0 0 0 0 0 0 0 0 0 0 0 0 0 0 0 0 0 0.25 0"/>
<feBlend mode="normal" in2="BackgroundImageFix" result="effect1_dropShadow"/>
<feBlend mode="normal" in="SourceGraphic" in2="effect1_dropShadow" result="shape"/>
</filter>
<linearGradient id="paint0_linear" x1="647.5" y1="47" x2="647.5" y2="293" gradientUnits="userSpaceOnUse">
<stop stop-color="#3396FF"/>
<stop offset="1" stop-color="#184473"/>
</linearGradient>
<linearGradient id="paint1_linear" x1="627.5" y1="200" x2="627.5" y2="293" gradientUnits="userSpaceOnUse">
<stop stop-color="#B19F8B"/>
<stop offset="1" stop-color="#7D6850"/>
</linearGradient>
<linearGradient id="paint2_linear" x1="585.5" y1="54" x2="585.5" y2="293" gradientUnits="userSpaceOnUse">
<stop stop-color="#3396FF"/>
<stop offset="1" stop-color="#184473"/>
</linearGradient>
<linearGradient id="paint3_linear" x1="565.5" y1="208" x2="565.5" y2="293" gradientUnits="userSpaceOnUse">
<stop stop-color="#B19F8B"/>
<stop offset="1" stop-color="#7D6850"/>
</linearGradient>
<linearGradient id="paint4_linear" x1="523.5" y1="59" x2="523.5" y2="293" gradientUnits="userSpaceOnUse">
<stop stop-color="#3396FF"/>
<stop offset="1" stop-color="#184473"/>
</linearGradient>
<linearGradient id="paint5_linear" x1="503.5" y1="218" x2="503.5" y2="293" gradientUnits="userSpaceOnUse">
<stop stop-color="#B19F8B"/>
<stop offset="1" stop-color="#7D6850"/>
</linearGradient>
<linearGradient id="paint6_linear" x1="461.5" y1="77" x2="461.5" y2="293" gradientUnits="userSpaceOnUse">
<stop stop-color="#3396FF"/>
<stop offset="1" stop-color="#184473"/>
</linearGradient>
<linearGradient id="paint7_linear" x1="441.5" y1="230" x2="441.5" y2="293" gradientUnits="userSpaceOnUse">
<stop stop-color="#B19F8B"/>
<stop offset="1" stop-color="#7D6850"/>
</linearGradient>
<linearGradient id="paint8_linear" x1="399.5" y1="96" x2="399.5" y2="293" gradientUnits="userSpaceOnUse">
<stop stop-color="#3396FF"/>
<stop offset="1" stop-color="#184473"/>
</linearGradient>
<linearGradient id="paint9_linear" x1="379.5" y1="259" x2="379.5" y2="293" gradientUnits="userSpaceOnUse">
<stop stop-color="#B19F8B"/>
<stop offset="1" stop-color="#7D6850"/>
</linearGradient>
<linearGradient id="paint10_linear" x1="337.5" y1="117" x2="337.5" y2="293" gradientUnits="userSpaceOnUse">
<stop stop-color="#3396FF"/>
<stop offset="1" stop-color="#184473"/>
</linearGradient>
<linearGradient id="paint11_linear" x1="317.5" y1="268" x2="317.5" y2="293" gradientUnits="userSpaceOnUse">
<stop stop-color="#B19F8B"/>
<stop offset="1" stop-color="#7D6850"/>
</linearGradient>
<linearGradient id="paint12_linear" x1="275.5" y1="193" x2="275.5" y2="293" gradientUnits="userSpaceOnUse">
<stop stop-color="#3396FF"/>
<stop offset="1" stop-color="#184473"/>
</linearGradient>
<linearGradient id="paint13_linear" x1="255.5" y1="275" x2="255.5" y2="293" gradientUnits="userSpaceOnUse">
<stop stop-color="#B19F8B"/>
<stop offset="1" stop-color="#7D6850"/>
</linearGradient>
<linearGradient id="paint14_linear" x1="213.5" y1="249" x2="213.5" y2="293" gradientUnits="userSpaceOnUse">
<stop stop-color="#3396FF"/>
<stop offset="1" stop-color="#184473"/>
</linearGradient>
<linearGradient id="paint15_linear" x1="193.5" y1="286" x2="193.5" y2="293" gradientUnits="userSpaceOnUse">
<stop stop-color="#B19F8B"/>
<stop offset="1" stop-color="#7D6850"/>
</linearGradient>
<linearGradient id="paint16_linear" x1="151.5" y1="279" x2="151.5" y2="293" gradientUnits="userSpaceOnUse">
<stop stop-color="#3396FF"/>
<stop offset="1" stop-color="#184473"/>
</linearGradient>
<linearGradient id="paint17_linear" x1="131.5" y1="288" x2="131.5" y2="293" gradientUnits="userSpaceOnUse">
<stop stop-color="#B19F8B"/>
<stop offset="1" stop-color="#7D6850"/>
</linearGradient>
<linearGradient id="paint18_linear" x1="89.5" y1="286" x2="89.5" y2="293" gradientUnits="userSpaceOnUse">
<stop stop-color="#3396FF"/>
<stop offset="1" stop-color="#184473"/>
</linearGradient>
<linearGradient id="paint19_linear" x1="69.5" y1="290" x2="69.5" y2="293" gradientUnits="userSpaceOnUse">
<stop stop-color="#B19F8B"/>
<stop offset="1" stop-color="#7D6850"/>
</linearGradient>
<linearGradient id="paint20_linear" x1="27.5" y1="292" x2="27.5" y2="293" gradientUnits="userSpaceOnUse">
<stop stop-color="#3396FF"/>
<stop offset="1" stop-color="#184473"/>
</linearGradient>
<linearGradient id="paint21_linear" x1="7.49999" y1="292" x2="7.49999" y2="293" gradientUnits="userSpaceOnUse">
<stop stop-color="#B19F8B"/>
<stop offset="1" stop-color="#7D6850"/>
</linearGradient>
</defs>
</svg>
