<svg width="16" height="16" viewBox="0 0 16 16" fill="none" xmlns="http://www.w3.org/2000/svg">
<path d="M15.8047 14.8618L12.9667 12.0236C14.0275 10.7514 14.6667 9.11592 14.6667 7.33384C14.6667 3.28996 11.3769 0 7.33333 0C3.28973 0 0 3.28992 0 7.33384C0 11.3778 3.28973 14.6677 7.33333 14.6677C9.11586 14.6677 10.7517 14.028 12.024 12.9666L14.8619 15.8047C14.9921 15.9349 15.1627 16 15.3333 16C15.5039 16 15.6746 15.9349 15.8047 15.8047C16.0651 15.5443 16.0651 15.1222 15.8047 14.8618ZM1.6 7.33384C1.6 4.02521 4.02493 1.60009 7.33333 1.60009C10.6417 1.60009 13.0667 4.02521 13.0667 7.33384C13.0667 10.6425 10.6417 13.0676 7.33333 13.0676C4.02493 13.0676 1.6 10.6425 1.6 7.33384Z" fill="black"/>
</svg>
